<svg width="41" height="41" viewBox="0 0 41 41" fill="none" xmlns="http://www.w3.org/2000/svg">
<g clip-path="url(#clip0_6_28)">
<path d="M36.8203 6.83304C36.665 6.81705 36.5086 6.81705 36.3533 6.83304H4.46444C4.26006 6.83619 4.05703 6.86684 3.86082 6.92415L20.3178 23.3128L36.8203 6.83304Z" fill="white"/>
<path d="M38.5058 8.4165L21.9236 24.9304C21.4968 25.3546 20.9195 25.5928 20.3178 25.5928C19.716 25.5928 19.1387 25.3546 18.7119 24.9304L2.27778 8.54178C2.22726 8.72747 2.20047 8.91881 2.19806 9.11123V31.889C2.19806 32.4931 2.43804 33.0725 2.8652 33.4996C3.29237 33.9268 3.87173 34.1668 4.47584 34.1668H36.3647C36.9688 34.1668 37.5482 33.9268 37.9754 33.4996C38.4025 33.0725 38.6425 32.4931 38.6425 31.889V9.11123C38.6334 8.87394 38.5873 8.63954 38.5058 8.4165ZM6.03612 31.889H4.45306V30.2604L12.7328 22.049L14.3386 23.6548L6.03612 31.889ZM36.3419 31.889H34.7475L26.445 23.6548L28.0508 22.049L36.3306 30.2604L36.3419 31.889Z" fill="white"/>
</g>
<defs>
<clipPath id="clip0_6_28">
<rect width="41" height="41" fill="white"/>
</clipPath>
</defs>
</svg>
