<svg width="36" height="36" viewBox="0 0 36 36" fill="none" xmlns="http://www.w3.org/2000/svg">
<g clip-path="url(#clip0_6_32)">
<path d="M6.75 4.69848C6.75 3.53686 7.22411 2.42282 8.06802 1.60144C8.91193 0.780053 10.0565 0.318604 11.25 0.318604L24.75 0.318604C25.9435 0.318604 27.0881 0.780053 27.932 1.60144C28.7759 2.42282 29.25 3.53686 29.25 4.69848V30.9777C29.25 32.1393 28.7759 33.2534 27.932 34.0747C27.0881 34.8961 25.9435 35.3576 24.75 35.3576H11.25C10.0565 35.3576 8.91193 34.8961 8.06802 34.0747C7.22411 33.2534 6.75 32.1393 6.75 30.9777V4.69848ZM20.25 28.7878C20.25 28.207 20.0129 27.6499 19.591 27.2393C19.169 26.8286 18.5967 26.5978 18 26.5978C17.4033 26.5978 16.831 26.8286 16.409 27.2393C15.9871 27.6499 15.75 28.207 15.75 28.7878C15.75 29.3686 15.9871 29.9256 16.409 30.3363C16.831 30.747 17.4033 30.9777 18 30.9777C18.5967 30.9777 19.169 30.747 19.591 30.3363C20.0129 29.9256 20.25 29.3686 20.25 28.7878Z" fill="white"/>
</g>
<defs>
<clipPath id="clip0_6_32">
<rect width="36" height="35.039" fill="white" transform="translate(0 0.318604)"/>
</clipPath>
</defs>
</svg>
