<svg width="45" height="47" viewBox="0 0 45 47" fill="none" xmlns="http://www.w3.org/2000/svg">
<path d="M22.5 15.6522C18.3563 15.6522 15 19.1544 15 23.4783C15 27.8022 18.3563 31.3044 22.5 31.3044C26.6438 31.3044 30 27.8022 30 23.4783C30 19.1544 26.6438 15.6522 22.5 15.6522ZM39.2625 21.5218C38.8378 17.5542 37.1328 13.8552 34.4275 11.0322C31.7221 8.20929 28.1773 6.43015 24.375 5.98698V1.95654H20.625V5.98698C16.8227 6.43015 13.2779 8.20929 10.5726 11.0322C7.86723 13.8552 6.16222 17.5542 5.73751 21.5218H1.87501V25.4348H5.73751C6.16222 29.4024 7.86723 33.1014 10.5726 35.9243C13.2779 38.7473 16.8227 40.5264 20.625 40.9696V45H24.375V40.9696C28.1773 40.5264 31.7221 38.7473 34.4275 35.9243C37.1328 33.1014 38.8378 29.4024 39.2625 25.4348H43.125V21.5218H39.2625ZM22.5 37.1739C15.2438 37.1739 9.37501 31.05 9.37501 23.4783C9.37501 15.9065 15.2438 9.78263 22.5 9.78263C29.7563 9.78263 35.625 15.9065 35.625 23.4783C35.625 31.05 29.7563 37.1739 22.5 37.1739Z" fill="white"/>
</svg>
